<?xml version="1.0" standalone="no"?>
<!DOCTYPE svg PUBLIC "-//W3C//DTD SVG 20010904//EN"
 "http://www.w3.org/TR/2001/REC-SVG-20010904/DTD/svg10.dtd">
<svg version="1.0" xmlns="http://www.w3.org/2000/svg"
 width="146.000000pt" height="57.000000pt" viewBox="0 0 146.000000 57.000000"
 preserveAspectRatio="xMidYMid meet">

<g transform="translate(0.000000,57.000000) scale(0.100000,-0.100000)"
fill="#000000" stroke="none">
<path d="M190 275 l0 -145 25 0 c24 0 25 3 25 60 l0 60 63 0 c60 0 63 1 65 25
2 24 0 25 -63 25 l-65 0 0 35 0 35 70 0 c68 0 70 1 70 25 0 25 0 25 -95 25
l-95 0 0 -145z"/>
<path d="M440 275 l0 -145 25 0 25 0 0 145 0 145 -25 0 -25 0 0 -145z"/>
<path d="M990 400 c0 -15 7 -20 25 -20 18 0 25 5 25 20 0 15 -7 20 -25 20 -18
0 -25 -5 -25 -20z"/>
<path d="M575 329 c-20 -12 -35 -29 -35 -40 0 -14 40 -16 51 -3 16 19 55 18
63 -3 8 -20 -7 -30 -55 -38 -48 -8 -73 -36 -65 -70 10 -37 48 -52 94 -35 26 9
37 10 40 1 2 -6 13 -11 25 -11 21 0 22 3 17 90 -3 49 -10 94 -17 101 -16 16
-94 22 -118 8z m85 -112 c0 -26 -26 -49 -51 -45 -33 4 -33 40 1 49 39 11 50
10 50 -4z"/>
<path d="M751 328 c0 -7 17 -53 37 -103 33 -79 40 -90 62 -90 22 0 29 11 62
95 21 52 38 98 38 103 0 4 -11 7 -24 7 -20 0 -27 -10 -46 -62 -12 -35 -25 -66
-29 -70 -4 -4 -17 24 -30 62 -21 60 -27 70 -48 70 -12 0 -23 -6 -22 -12z"/>
<path d="M990 235 l0 -105 25 0 25 0 0 105 0 105 -25 0 -25 0 0 -105z"/>
<path d="M1155 331 c-89 -37 -77 -176 16 -196 43 -10 97 12 114 45 48 93 -35
189 -130 151z m77 -48 c38 -34 12 -113 -37 -113 -30 0 -49 25 -49 65 0 59 45
85 86 48z"/>
</g>
</svg>
