<?xml version="1.0" standalone="no"?>
<!DOCTYPE svg PUBLIC "-//W3C//DTD SVG 20010904//EN"
 "http://www.w3.org/TR/2001/REC-SVG-20010904/DTD/svg10.dtd">
<svg version="1.0" xmlns="http://www.w3.org/2000/svg"
 width="665.000000pt" height="187.000000pt" viewBox="0 0 665.000000 187.000000"
 preserveAspectRatio="xMidYMid meet">

<g transform="translate(0.000000,187.000000) scale(0.100000,-0.100000)"
fill="#000000" stroke="none">
<path d="M0 935 l0 -935 3325 0 3325 0 0 935 0 935 -3325 0 -3325 0 0 -935z
m1192 547 c45 -37 27 -116 -31 -132 -20 -6 -161 -10 -323 -10 l-288 0 0 -185
c0 -141 3 -185 13 -186 6 -1 94 -3 195 -4 213 -3 232 -9 232 -74 0 -26 -7 -44
-21 -57 -19 -17 -41 -19 -220 -22 l-199 -3 0 -250 c0 -236 -1 -250 -20 -269
-30 -30 -83 -27 -109 6 -21 26 -21 35 -21 586 0 377 3 566 11 579 6 11 20 24
32 29 12 5 182 8 378 7 274 -2 360 -5 371 -15z m325 7 c15 -5 31 -16 35 -22 4
-7 8 -245 8 -529 l0 -518 268 0 c256 0 269 -1 290 -20 29 -27 29 -83 2 -110
-19 -19 -33 -20 -345 -20 -312 0 -326 1 -345 20 -20 20 -20 33 -20 593 0 534
1 575 18 589 16 14 38 25 54 27 4 1 19 -4 35 -10z m1320 0 c35 -11 42 -24 112
-194 27 -66 84 -202 125 -302 42 -101 76 -185 76 -188 0 -3 9 -24 19 -48 25
-54 139 -331 156 -379 8 -20 11 -46 8 -58 -6 -24 -51 -50 -86 -50 -39 0 -47
13 -121 195 l-32 80 -285 3 -285 2 -39 -97 c-57 -146 -66 -163 -87 -174 -30
-16 -86 -2 -104 26 -20 30 -18 37 91 305 48 118 109 269 135 335 128 319 199
487 214 510 15 22 45 42 67 44 3 1 20 -4 36 -10z m694 -8 c4 -3 32 -64 62
-136 31 -71 90 -210 131 -307 42 -98 76 -180 76 -183 0 -2 11 -28 24 -57 13
-29 38 -87 55 -128 18 -41 39 -92 48 -113 9 -21 19 -34 23 -30 7 8 76 171 129
303 16 41 44 109 61 150 18 41 66 158 107 260 88 217 98 236 121 249 39 21
112 -22 112 -66 0 -13 -63 -168 -156 -383 -13 -30 -71 -167 -129 -305 -59
-137 -115 -268 -125 -290 -10 -22 -24 -58 -32 -79 -20 -59 -59 -96 -100 -96
-47 0 -69 26 -113 135 -70 171 -213 507 -251 593 -13 29 -24 55 -24 58 0 2
-31 77 -70 167 -85 200 -87 206 -60 239 26 34 86 45 111 19z m1317 -9 c9 -12
12 -146 12 -591 0 -520 -2 -576 -17 -593 -23 -25 -87 -24 -113 2 -20 20 -20
33 -20 588 0 613 -1 605 53 615 33 6 70 -3 85 -21z m1059 18 c182 -23 274
-104 309 -273 23 -111 16 -637 -9 -714 -39 -117 -118 -189 -241 -218 -87 -21
-413 -20 -506 1 -141 32 -220 118 -250 271 -8 38 -10 164 -8 363 3 293 4 307
27 364 45 113 146 189 273 205 92 12 311 13 405 1z"/>
<path d="M2741 1102 c-30 -75 -73 -184 -96 -242 -24 -58 -46 -115 -49 -127
l-7 -23 216 0 216 0 -7 23 c-7 22 -160 398 -191 470 -9 20 -19 37 -22 37 -3 0
-30 -62 -60 -138z"/>
<path d="M5449 1317 c-32 -17 -50 -37 -69 -72 -25 -49 -25 -53 -28 -326 -4
-301 3 -373 42 -424 46 -60 80 -69 281 -73 266 -6 330 12 378 101 21 41 22 51
22 332 0 160 -4 312 -8 338 -10 60 -63 122 -115 137 -21 5 -132 10 -248 10
-201 0 -213 -1 -255 -23z"/>
</g>
</svg>
